<?xml version="1.0" encoding="utf-8"?>
<!-- Generator: Adobe Illustrator 16.0.0, SVG Export Plug-In . SVG Version: 6.00 Build 0)  -->
<!DOCTYPE svg PUBLIC "-//W3C//DTD SVG 1.1//EN" "http://www.w3.org/Graphics/SVG/1.1/DTD/svg11.dtd">
<svg version="1.1" id="Layer_1" xmlns="http://www.w3.org/2000/svg" xmlns:xlink="http://www.w3.org/1999/xlink" x="0px" y="0px"
	 width="500px" height="500px" viewBox="0 0 500 500" enable-background="new 0 0 500 500" xml:space="preserve">
<g>
	<g>
		<path d="M186,115.25c11.917,0,23.833,0,35.75,0c2.35,1.066,4.619,2.382,7.059,3.164c40.977,13.076,65.282,40.729,71.503,83.311
			c3.732,25.542-4.438,48.601-19.883,71.751c5.322,4.586,10.146,9.534,15.756,13.312c4.43,2.979,9.739,4.756,14.82,6.63
			c6.354,2.348,14.402,2.523,19.05,6.646c17.648,15.653,34.221,32.521,51.193,48.937c0,4.584,0,9.166,0,13.75
			c-9.167,9.166-18.333,18.334-27.5,27.5c-4.583,0-9.167,0-13.75,0c-15.794-16.344-31.396-32.882-47.476-48.938
			c-6.56-6.553-11.394-12.734-7.976-22.824c0.872-2.575-1.04-6.883-2.94-9.459c-5.127-6.938-10.936-13.377-16.363-19.877
			c-4.781,2.832-6.684,3.94-8.569,5.078c-58.247,35.109-127.236,8.666-147.273-56.414c-0.753-2.446-2.088-4.713-3.153-7.065
			c0-11.916,0-23.834,0-35.75c1.309-3.239,2.831-6.41,3.896-9.729c9.337-29.104,27.64-50.153,55.873-62.238
			C172.586,120.221,179.334,117.833,186,115.25z M278.042,214.269c1.36-40.307-30.833-74.145-72.464-76.162
			c-40.097-1.941-75.794,32.353-76.606,73.598c-0.795,40.314,32.277,74.288,73.385,75.386
			C242.844,288.17,276.648,255.645,278.042,214.269z"/>
		<path fill="none" d="M381.25,349c-16.974-16.414-33.545-33.282-51.193-48.936c-4.646-4.123-12.694-4.301-19.05-6.647
			c-5.081-1.874-10.392-3.649-14.819-6.63c-5.611-3.776-10.435-8.727-15.756-13.311c15.442-23.151,23.614-46.21,19.881-71.752
			c-6.222-42.582-30.525-70.235-71.502-83.311c-2.44-0.782-4.709-2.097-7.059-3.164c53.167,0,106.333,0,159.5,0
			C381.25,193.166,381.25,271.084,381.25,349z"/>
		<path fill="none" d="M106.25,230.75c1.065,2.353,2.399,4.619,3.153,7.065c20.037,65.08,89.026,91.523,147.273,56.414
			c1.887-1.138,3.788-2.246,8.569-5.078c5.429,6.5,11.237,12.938,16.362,19.877c1.901,2.576,3.813,6.884,2.941,9.459
			c-3.418,10.09,1.416,16.271,7.977,22.824c16.079,16.058,31.681,32.596,47.475,48.938c-77.645,0-155.291,0-233.75,0
			C106.25,337.087,106.25,283.918,106.25,230.75z"/>
		<path fill="none" d="M186,115.25c-6.666,2.583-13.414,4.971-19.982,7.783c-28.233,12.085-46.535,33.134-55.873,62.238
			c-1.065,3.319-2.586,6.491-3.896,9.729c0-26.584,0-53.166,0-79.75C132.833,115.25,159.417,115.25,186,115.25z"/>
		<path fill="none" d="M353.75,390.25c9.167-9.166,18.333-18.334,27.5-27.5c0,9.166,0,18.334,0,27.5
			C372.083,390.25,362.917,390.25,353.75,390.25z"/>
		<path fill="none" d="M278.042,214.269c-1.394,41.375-35.198,73.901-75.686,72.821c-41.108-1.098-74.18-35.07-73.385-75.386
			c0.812-41.245,36.51-75.539,76.606-73.598C247.209,140.124,279.402,173.961,278.042,214.269z"/>
	</g>
</g>
<circle fill="none" stroke="#000000" stroke-width="18" stroke-miterlimit="10" cx="205" cy="213" r="95"/>
<circle fill="none" stroke="#000000" stroke-width="15" stroke-miterlimit="10" cx="250" cy="250" r="187.5"/>
<g>
	<path d="M225.187,203.551h-43.333c-7.364,0-13.333,6.264-13.333,13.988v27.024c0,7.726,5.97,13.987,13.333,13.987h43.333
		c7.364,0,13.333-6.262,13.333-13.987v-27.024C238.521,209.814,232.551,203.551,225.187,203.551z M193.616,244.917l5.508-13.218
		c-2.126-1.422-3.527-3.842-3.527-6.591c0-4.377,3.547-7.924,7.924-7.924s7.924,3.547,7.924,7.924c0,2.749-1.401,5.169-3.527,6.591
		l5.508,13.218H193.616z"/>
	<line stroke="#000000" stroke-width="7" stroke-miterlimit="10" x1="179.521" y1="219.866" x2="179.521" y2="182.45"/>
	<path fill="none" stroke="#000000" stroke-width="7" stroke-miterlimit="10" d="M179.521,182.45c0-8.284,11.193-15,25-15
		c13.808,0,25,6.716,25,15"/>
	<line fill="none" stroke="#000000" stroke-width="7" stroke-miterlimit="10" x1="229.521" y1="180.95" x2="229.521" y2="190.95"/>
</g>
</svg>
