<?xml version="1.0" encoding="utf-8"?>
<!-- Generator: Adobe Illustrator 16.0.0, SVG Export Plug-In . SVG Version: 6.00 Build 0)  -->
<!DOCTYPE svg PUBLIC "-//W3C//DTD SVG 1.1//EN" "http://www.w3.org/Graphics/SVG/1.1/DTD/svg11.dtd">
<svg version="1.1" id="Layer_1" xmlns="http://www.w3.org/2000/svg" xmlns:xlink="http://www.w3.org/1999/xlink" x="0px" y="0px"
	 width="500px" height="500px" viewBox="0 0 500 500" enable-background="new 0 0 500 500" xml:space="preserve">
<path d="M360.829,110.4c27.674,12.114,55.35,24.228,84.98,37.196c-0.855,65.696-25.645,122.852-85.174,163.552
	c-6.277,4.291-11.174,3.514-17.191-0.266c-45.096-28.321-70.201-69.32-80.018-119.677c-2.994-15.366-3.723-31.151-5.109-43.364
	c30.197-13.214,57.877-25.328,85.555-37.441C349.522,110.4,355.179,110.4,360.829,110.4z M267.306,152.925
	c1.369,11.202,2.195,24.553,4.729,37.592c8.871,45.659,31.365,83.248,70.898,110.509c6.182,4.264,10.986,4.969,17.678,0.236
	c51.057-36.121,72.855-86.471,75.9-145.978c0.119-2.251-3.029-5.83-5.5-6.848c-21.355-8.785-43.08-16.744-64.33-25.763
	c-9.797-4.16-18.439-4.543-28.275-0.116C315.778,132.744,292.763,142.117,267.306,152.925z"/>
<g>
	<path d="M282.102,378.004c-1.1,0-2-0.9-2-2V364.6c0-1.1-0.9-2-2-2h-51c-1.1,0-2,0.9-2,2v11.404c0,1.1-0.9,2-2,2h-23.5
		c-1.1,0-2,0.9-2,2V390.6c0,1.1,0.9,2,2,2h106c1.1,0,2-0.9,2-2v-10.596c0-1.1-0.9-2-2-2H282.102z"/>
</g>
<g>
	<path d="M325.205,191.484c0-14.289,12.023-25.872,26.859-25.872s26.861,11.583,26.861,25.872"/>
	<rect x="326.564" y="197.008" width="51" height="6.006"/>
	<rect x="373.867" y="202.553" width="3.582" height="14.783"/>
	<rect x="326.682" y="202.553" width="3.58" height="14.783"/>
	<rect x="336.119" y="202.553" width="3.582" height="14.783"/>
	<rect x="345.557" y="202.553" width="3.58" height="14.783"/>
	<rect x="354.992" y="202.553" width="3.582" height="14.783"/>
	<rect x="364.43" y="202.553" width="3.582" height="14.783"/>
	<g>
		<rect x="324.309" y="190.559" width="55.512" height="3.697"/>
		<path d="M379.82,190.559c0.99,0,1.791,0.828,1.791,1.849c0,1.022-0.801,1.849-1.791,1.849"/>
		<path d="M324.309,194.256c-0.988,0-1.789-0.828-1.789-1.849s0.801-1.849,1.789-1.849"/>
	</g>
	<g>
		<rect x="320.104" y="219.184" width="63.924" height="3.697"/>
		<path d="M384.027,219.184c1.137,0,2.062,0.828,2.062,1.849s-0.926,1.849-2.062,1.849"/>
		<path d="M320.104,222.881c-1.139,0-2.062-0.828-2.062-1.849s0.926-1.849,2.062-1.849"/>
	</g>
	<g>
		<rect x="322.627" y="221.034" width="58.877" height="8.316"/>
		<path d="M381.504,221.034c1.049,0,1.896,1.861,1.896,4.158c0,2.298-0.85,4.158-1.896,4.158"/>
		<path d="M322.627,229.348c-1.051,0-1.898-1.861-1.898-4.157s0.85-4.158,1.898-4.158"/>
	</g>
	<rect x="322.52" y="228.656" width="3.58" height="25.874"/>
	<rect x="341.023" y="228.656" width="3.58" height="25.874"/>
	<rect x="331.77" y="228.656" width="3.582" height="25.874"/>
	<rect x="350.273" y="228.656" width="3.582" height="25.874"/>
	<rect x="359.525" y="228.656" width="3.582" height="25.874"/>
	<rect x="368.779" y="228.656" width="3.58" height="25.874"/>
	<rect x="378.029" y="228.656" width="3.582" height="25.874"/>
	<g>
		<rect x="315.898" y="256.838" width="72.334" height="3.697"/>
		<path d="M388.232,256.838c1.287,0,2.332,0.828,2.332,1.85s-1.045,1.848-2.332,1.848"/>
		<path d="M315.898,260.535c-1.289,0-2.334-0.828-2.334-1.85c0-1.02,1.045-1.848,2.334-1.848"/>
	</g>
	<rect x="344.812" y="159.818" width="4.479" height="7.392"/>
	<rect x="353.945" y="159.818" width="4.477" height="7.392"/>
	<path d="M342.217,160.625c0-6.125,4.408-11.088,9.848-11.088c5.441,0,9.85,4.964,9.85,11.088"/>
	<ellipse cx="352.064" cy="148.845" rx="2.238" ry="2.31"/>
</g>
<g>
	<path d="M360.969,308.148c-6.277,4.291-11.174,3.514-17.191-0.266c-0.594-0.373-0.594-0.373-0.594-0.373
		c-0.642-0.42-1.166,0.586-1.166,2.236v23.273c0,1.65-1.35,3-3,3H165.019c-1.65,0-3-1.35-3-3v-89c0-1.65,1.35-3,3-3h113.634
		c1.65,0,2.417-1.218,1.705-2.706l-5.581-12.517c-0.63-1.525-2.495-2.773-4.146-2.773H145.602c-1.65,0-3,1.35-3,3v124
		c0,1.65,1.35,3,3,3h214c1.65,0,3-1.35,3-3v-40.025c0-1.65-0.485-2.652-1.078-2.229C361.523,307.77,361.523,307.77,360.969,308.148z
		 M337.745,345.731c-1.565,0.521-4.196,0.947-5.847,0.947h-3.277c-1.65,0-4.281-0.427-5.847-0.947c0,0-0.515-0.172-0.515-1.553
		s0.515-1.553,0.515-1.553c1.565-0.521,4.196-0.947,5.847-0.947h3.277c1.65,0,4.281,0.427,5.847,0.947c0,0,0.515,0.172,0.515,1.553
		S337.745,345.731,337.745,345.731z"/>
</g>
<g>
	<path fill="none" stroke="#000000" stroke-width="5" stroke-miterlimit="10" d="M116.691,162.095c0-8.285,5.597-15,12.501-15
		c6.902,0,12.499,6.715,12.499,15"/>
	<g>
		<path d="M139.734,156.461c-1.004-0.45-2.725-0.818-3.825-0.818h-13.436c-1.1,0-2.821,0.368-3.825,0.818l-3.641,3.647
			c-0.449,1.004-0.816,2.726-0.816,3.826v9.805c0,1.1,0.367,2.822,0.816,3.826l3.641,3.647c1.004,0.45,2.725,0.818,3.825,0.818
			h13.436c1.1,0,2.821-0.368,3.825-0.818l3.641-3.647c0.449-1.004,0.816-2.726,0.816-3.826v-9.805c0-1.1-0.367-2.822-0.816-3.826
			L139.734,156.461z M127.061,176.049c-1.1,0-1.704-0.85-1.343-1.889l1.375-3.952c0.361-1.039,0.013-2.518-0.774-3.286
			c0,0-0.392-0.382-0.392-1.738c0-1.967,1.555-3.562,3.474-3.562c1.917,0,3.471,1.596,3.471,3.562c0,1.355-0.392,1.738-0.392,1.738
			c-0.787,0.769-1.135,2.247-0.773,3.286l1.376,3.953c0.362,1.039-0.242,1.889-1.342,1.889H127.061z"/>
	</g>
</g>
<g>
	<path d="M127.191,223.023c1.1,0,2-0.9,2-2v-6.001c0-1.1,0-2.9,0-4v-0.906c0-1.1,0.9-2,2-2h51c1.1,0,2-0.9,2-2v-26.518
		c0-1.1-0.9-2-2-2h-33.948c-1.1,0-2.449,0.78-2.998,1.733l-4.24,3.56c-1.022,0.405-2.759,0.737-3.859,0.737h-15.909
		c-1.1,0-2.836-0.332-3.859-0.737l-4.24-3.56c-0.549-0.953-1.898-1.733-2.998-1.733H76.191c-1.1,0-2,0.9-2,2V390.6c0,1.1,0.9,2,2,2
		h106c1.1,0,2-0.9,2-2v-20.482c0-1.1-0.9-2-2-2h-51c-1.1,0-2-0.9-2-2v-1.094c0-1.1,0-2.9,0-4v-56.945c0-1.1-0.9-2-2-2h-36
		c-1.1,0-2-0.9-2-2v-1c0-1.1,0.9-2,2-2h36c1.1,0,2-0.9,2-2v-3.011c0-1.1-0.9-2-2-2h-36c-1.1,0-2-0.9-2-2v-1c0-1.1,0.9-2,2-2h36
		c1.1,0,2-0.9,2-2v-19.862c0-1.1-0.9-2-2-2h-36c-1.1,0-2-0.9-2-2v-8c0-1.1,0.9-2,2-2h36c1.1,0,2-0.9,2-2v-10.182c0-1.1-0.9-2-2-2
		h-36c-1.1,0-2-0.9-2-2v-8c0-1.1,0.9-2,2-2H127.191z M92.362,359.6c0-1.1,0.9-2,2-2h11c1.1,0,2,0.9,2,2v6c0,1.1-0.9,2-2,2h-11
		c-1.1,0-2-0.9-2-2V359.6z"/>
</g>
<text transform="matrix(1 0 0 1 108.2881 440.5)" font-family="'MyanmarMN-Bold'" font-size="25">FISMA COMPLIANCE</text>
<g>
	<path fill="none" stroke="#231F20" stroke-width="8" d="M77.192,408.5c0-1.65,1.35-3,3-3h332.761c1.65,0,3,1.35,3,3v45.545
		c0,1.65-1.35,3-3,3H80.192c-1.65,0-3-1.35-3-3V408.5z"/>
</g>
</svg>
